<svg data-name="Layer 1" xmlns="http://www.w3.org/2000/svg" viewBox="0 0 211.7 202.28">
  <path d="M117.56 109.07a3.59 3.59 0 0 1-3.82-3.59c0-2 1.3-2.93 2.85-4l5 6a5.61 5.61 0 0 1-4 1.64zm.33-16.07a2 2 0 0 1 2.1 2.11 2.78 2.78 0 0 1-1.54 2.19s-.68.48-1 .68c-1.06-1.24-1.63-2-1.63-2.9a2 2 0 0 1 2.07-2.08zm6.79 8a7 7 0 0 1-1.13 4.23l-4.45-5.3 1.55-1.07a4.44 4.44 0 0 0 2.25-3.73 4.67 4.67 0 0 0-5-4.71c-3.14 0-5.16 2-5.16 4.68 0 2 1.25 3.43 2.2 4.53-2.08 1.37-4.18 3-4.18 6 0 3.82 2.43 6.28 6.81 6.28a8.25 8.25 0 0 0 5.84-2.25l1.72 2.08h2.36l23.7 9.47-5.79 12.49-6.17-13.13H136v21.1h3.2v-14.11l5 10.29h2.37l4.86-10.29v14.11h3.2v-21.1h-1.81l-24.58-9.82-2.77-3.32a10 10 0 0 0 2.1-6.48zM52.3 51.78c4.3 0 7.59-2.94 7.59-7.29v-14h-3.2v13.85a4.19 4.19 0 0 1-4.39 4.56c-2.64 0-4.36-1.75-4.36-4.56V30.5h-3.2v14c0 4.35 3.26 7.29 7.56 7.29zM68.89 37.49l4.97 10.28h2.37l4.86-10.28V51.6h3.2V30.5h-3.2l-6.04 13.13-6.16-13.13h-3.21v21.1h3.21V37.49zM94.07 44.63l3.29-9.36 3.2 9.36zM96 30.5l-7.74 21.1h3.4l1.46-4.24h8.33l1.45 4.24h3.41l-7.74-21.1zM113.47 36.75l9.75 14.85h2.93V30.5h-3.2v14.81L113.2 30.5h-2.93v21.1h3.2V36.75zM64.62 60.43h-3.2v21.1h3.2v-21.1zM77.8 63.13a4.31 4.31 0 0 1 4.45 3.67h3.23a7.42 7.42 0 0 0-7.68-6.55 7.52 7.52 0 0 0-5.54 2.26c-2.08 2.07-2.05 4.41-2.05 8.48s0 6.4 2.05 8.47a8.1 8.1 0 0 0 11.35-.14c1.39-1.49 1.9-3.24 1.9-6v-3.2H77.8v2.73h4.51V74a4.78 4.78 0 0 1-1.07 3.32 4.51 4.51 0 0 1-3.44 1.48 4.22 4.22 0 0 1-3.11-1.28c-1-1.12-1.28-2.33-1.28-6.57s.24-5.43 1.28-6.55a4.21 4.21 0 0 1 3.11-1.31zM91.04 60.43v21.1h3.21v-9.21h8.56v9.21h3.2v-21.1h-3.2v9.01h-8.56v-9.01h-3.21zM119.51 81.53V63.31h5.82v-2.88h-14.82v2.88h5.81v18.22h3.19zM135.37 78.84a7 7 0 0 1-5.4-2l-2.13 2.11c2 2 4.29 2.78 7.47 2.78 4.41 0 7.58-2.31 7.58-6.19a5.54 5.54 0 0 0-1.71-4.33 7 7 0 0 0-4-1.57l-2.4-.36a4.69 4.69 0 0 1-2.37-1 2.54 2.54 0 0 1-.8-2c0-1.87 1.36-3.29 3.86-3.29a6.23 6.23 0 0 1 4.59 1.63l2-2a8.77 8.77 0 0 0-6.55-2.41c-4.39 0-7 2.52-7 6.2a5.24 5.24 0 0 0 1.54 4 7.24 7.24 0 0 0 4 1.69l2.49.36a3.67 3.67 0 0 1 2.32.88 2.87 2.87 0 0 1 .82 2.2c0 2-1.6 3.23-4.35 3.23zM73.52 111.64V93.41h5.81v-2.87H64.51v2.87h5.81v18.23h3.2zM82.55 96.56a5.29 5.29 0 0 0 1.54 4 7.24 7.24 0 0 0 4 1.69l2.49.36a3.56 3.56 0 0 1 2.31.89 2.81 2.81 0 0 1 .84 2.19c0 2-1.61 3.23-4.36 3.23a7 7 0 0 1-5.4-2L81.84 109c2 2 4.3 2.78 7.47 2.78 4.42 0 7.59-2.31 7.59-6.19a5.55 5.55 0 0 0-1.72-4.33 7 7 0 0 0-3.94-1.57l-2.4-.36a4.69 4.69 0 0 1-2.38-1 2.53 2.53 0 0 1-.79-2c0-1.87 1.36-3.29 3.84-3.29a6.21 6.21 0 0 1 4.6 1.63l2-2a8.8 8.8 0 0 0-6.55-2.4c-4.39 0-7.06 2.51-7.06 6.19zM54.15 99.85h-4.74v-6.61h4.74c2.14 0 3.59 1.24 3.59 3.32s-1.45 3.29-3.59 3.29zm6.79-3.32c0-3.59-2.55-6.16-6.55-6.16h-8.18v21.1h3.2v-8.9h4l4.45 8.9h3.73l-4.86-9.34a5.54 5.54 0 0 0 4.21-5.6z" fill="#0e0e1d" stroke="#231f20" stroke-miterlimit="10" stroke-width=".3"/>
  <path d="M29.79 104.5l3.29-9.36 3.2 9.36zm14.55-34.58v-6.61h4.74c2.14 0 3.59 1.24 3.59 3.31s-1.45 3.3-3.59 3.3zm25 83.46v-1.91l22.28-9.8h2.73v-8.92h8.77v-2.88h-8.74v-6.43h10.28v-2.87H91.18v9.94l-49.3-19.44-7.33-20 22-9.52-.52-1-4.37-8.35a5.54 5.54 0 0 0 4.21-5.6c0-3.59-2.55-6.17-6.55-6.17h-7.19l-15-9.58v-8.47h8.57v9.22H39V30.5h-3.2v9h-8.62v-9H24v21.1h2.29l14.87 9.53v20.4h3.2v-8.89h4l4.45 8.89h.91l-20.41 8.84h-1.59L24 111.47h3.41l1.45-4.24h8.33l1.45 4.24h1.22l51.34 20.25v8.93l-22.43 9.85H55.88v21.11h3.21v-8.93h8.77v-2.87h-8.77v-6.43z" fill="#0e0e1d" stroke="#231f20" stroke-miterlimit="10" stroke-width=".3"/>
  <path fill="#0e0e1d" stroke="#231f20" stroke-miterlimit="10" stroke-width=".3" d="M73.95 171.6h13.49v-2.87H77.15v-6.34h8.77v-2.85h-8.77v-6.16h10.29v-2.88H73.95v21.1zM104.49 161.26a7 7 0 0 0-3.94-1.57l-2.4-.35a4.74 4.74 0 0 1-2.37-1 2.49 2.49 0 0 1-.8-2c0-1.87 1.36-3.29 3.85-3.29a6.16 6.16 0 0 1 4.59 1.63l2-2a8.82 8.82 0 0 0-6.55-2.4c-4.39 0-7.06 2.53-7.06 6.2a5.27 5.27 0 0 0 1.54 4 7.27 7.27 0 0 0 4 1.69l2.49.35a3.64 3.64 0 0 1 2.31.9 2.84 2.84 0 0 1 .83 2.19c0 2-1.6 3.23-4.36 3.23a6.93 6.93 0 0 1-5.39-2L91.15 169c2 2 4.3 2.78 7.47 2.78 4.42 0 7.59-2.31 7.59-6.19a5.51 5.51 0 0 0-1.72-4.33zM109.06 153.38h5.81v18.22h3.2v-18.22h5.81v-2.88h-14.82v2.88zM128.36 171.6h3.2v-21.1h-3.2v21.1zM148.91 150.5l-4.86 15.35-4.86-15.35h-3.32l6.94 21.1h2.49l6.99-21.1h-3.38zM157.71 164.64l3.29-9.37 3.2 9.37zm1.92-14.14l-7.73 21.11h3.41l1.45-4.24h8.33l1.45 4.24H170l-7.74-21.11zM177.55 168.73V150.5h-3.2v21.1h13.37v-2.87h-10.17zM112.44 120.57h-3.2v21.1h3.2v-21.1zM121.61 120.57h-3.2v21.1h13.36v-2.88h-10.16v-18.22z"/>
</svg>
